<svg xmlns="http://www.w3.org/2000/svg" width="512" height="512" fill="none"><g clip-path="url(#a)" stroke-width="50.233"><path d="M459.489 270.398c0 105.447-85.988 194.549-193.742 190.482-60.579-6.754-107.033-28.858-138.226-60.936-31.167-32.05-48.886-75.861-48.886-129.546 0-55.114 14.668-99.044 43.556-130.577 28.871-31.514 74.87-53.84 143.891-59.948 107.368-9.502 193.407 83.491 193.407 190.525Z" stroke="#fff"/><path opacity=".4" d="M292.23 445.974C192.973 472.57 87.44 414.104 64.087 311.69c-8.928-58.79.181-108.095 22.492-145.521 22.291-37.393 59.041-65.121 109.599-78.668 51.937-13.916 96.969-11.17 133.889 8.045 36.897 19.202 69.534 56.849 92.727 120.375 35.998 98.595-29.773 203.047-130.564 230.053Z" fill="#fff" fill-opacity=".1" stroke="#fff"/><path d="M447.164 197.735c26.596 99.257-31.87 204.791-134.284 228.144-58.79 8.927-108.095-.182-145.521-22.493-37.393-22.291-65.121-59.041-78.668-109.598-13.917-51.938-11.17-96.97 8.045-133.89 19.202-36.897 56.849-69.534 120.375-92.727 98.595-35.998 203.047 29.773 230.053 130.564Z" fill="#fff" fill-opacity=".3" stroke="#fff"/></g><defs><clipPath id="a"><rect width="512" height="512" rx="256" fill="#fff"/></clipPath></defs></svg>